<svg xmlns="http://www.w3.org/2000/svg" width="311" height="312"><path fill="#AACC8D" d="M94.64 46.9v45c0 8.19-4.78 15.69-12.96 19.1-12.95 5.46-21.14 17.73-21.14 31.36v143.18c0 4.1 2.73 6.82 6.82 6.82h81.82c4.1 0 6.82-2.73 6.82-6.82V142.36c0-13.63-8.18-25.9-21.14-31.36-8.18-2.73-12.95-10.23-12.95-19.09v-45H94.64z"/><path fill="#558442" d="M135.54 111.68c-8.18-3.4-13.63-10.9-13.63-19.09V46.91h-13.64v45c0 8.86 5.46 15.68 13.64 19.09 12.95 5.46 20.45 17.73 20.45 31.36V271.9c0 7.5-6.13 13.65-13.63 13.65H60.55c0 4.08 2.72 6.81 6.81 6.81h81.82c4.1 0 6.82-2.73 6.82-6.82V142.37c0-13.63-8.18-25.9-20.46-30.68"/><path fill="#8C6F5E" d="M156 176.46H60.55v109.09c0 4.08 2.72 6.81 6.81 6.81h81.82c4.1 0 6.82-2.73 6.82-6.82V176.46z"/><path fill="#D98B37" d="M94.64 19.64h27.27v13.64H94.64z"/><path fill="#9B5923" d="M108.27 19.64h13.64v13.64h-13.64z"/><path fill="#ECEFF9" d="M87.82 169.64h40.91v54.55H87.82z"/><path fill="#014463" d="M12.82 292.36a6.82 6.82 0 1 1 0 13.64 6.82 6.82 0 0 1 0-13.64M278.73 306H33.27c-4.09 0-6.82-2.73-6.82-6.82s2.73-6.82 6.82-6.82h245.46c4.08 0 6.81 2.73 6.81 6.82s-2.73 6.82-6.81 6.82M299.18 292.36a6.82 6.82 0 1 1 0 13.64 6.82 6.82 0 0 1 0-13.64"/><path fill="#CAD5E3" d="M108.27 176.46a6.82 6.82 0 1 1 0 13.63 6.82 6.82 0 0 1 0-13.63"/><path fill="#ECEFF9" d="M260.32 142.36h-57.96c-3.4 10.91-4.77 22.5-4.77 34.1 0 19.08 15 34.09 34.09 34.09 19.09 0 34.09-15 34.09-34.1-.68-11.59-2.04-23.18-5.45-34.09"/><path fill="#96BAE2" d="M260.32 142.36h-11.6c2.05 8.87 3.41 17.73 3.41 27.28 0 19.09-15 34.09-34.09 34.09-2.72 0-5.45-.68-7.5-.68 6.14 4.77 12.95 7.5 21.14 7.5 19.09 0 34.09-15 34.09-34.1-.68-11.59-2.04-23.18-5.45-34.09"/><path fill="#B47AD3" d="M226.9 181.9c-8.17-6.13-21.23-9.57-30.9-1.07 1.59 23.84 17.95 29.71 35.68 29.71 14.32 0 29.32-10.92 34.09-23.87-12.96 3.4-29.32 2.74-38.86-4.76"/><path fill="#7C28A3" d="M244.64 189.41a33.32 33.32 0 0 1-27.28 14.32c-2.73 0-7.15-.23-9.2-.23 6.14 4.77 15.34 7.04 22.84 7.04 14.32 0 28.9-10.58 33.67-23.54-6.14 1.37-13.9 3.77-20.03 2.41"/><path fill="#014463" d="M278.73 176.46c0-14.32-2.05-28.64-6.82-42.28l-.68-1.36c-.69-2.05-3.41-4.09-6.14-4.09H196.9a6.55 6.55 0 0 0-6.14 4.77l-.68.68c-4.77 13.64-6.82 27.96-6.82 42.28 0 23.86 17.73 43.63 40.9 47.04v55.23c0 7.49-6.13 13.63-13.63 13.63-4.08 0-6.81 2.73-6.81 6.82s2.73 6.82 6.8 6.82h40.93c4.08 0 6.8-2.73 6.8-6.82s-2.72-6.82-6.8-6.82c-7.5 0-13.64-6.14-13.64-13.63V223.5c23.18-3.41 40.91-23.18 40.91-47.04zm-77.05-34.1h57.96a102.73 102.73 0 0 1 4.03 19.92c-11.97-4.24-25.95-2.99-36.32 3.73h-.01a43.12 43.12 0 0 0-29.96-.97c.65-7.73 2.01-15.36 4.3-22.68zm55.39 32.67a23.03 23.03 0 0 1-15.25-.45 29.8 29.8 0 0 1 15.25.45zm-26.75 35.51c-17.9 0-31.58-13.16-33.24-30.51 8.96-4.87 21.8-4.24 29.15 1.88 6.81 5.45 15.68 8.18 24.54 8.18 4.51 0 8.24-.71 11.71-2.12-4.63 13.27-17.13 22.57-32.16 22.57z"/><path fill="#604033" d="M142.36 176.46v95.45c0 7.5-6.13 13.63-13.63 13.63H60.55c0 4.1 2.72 6.82 6.81 6.82h81.82c4.1 0 6.82-2.73 6.82-6.82V176.46h-13.64z"/><path fill="#D3BCB2" d="M77.6 271.9c-2.05 0-3.42-1.36-3.42-3.4v-20.45c0-2.05 1.37-3.41 3.41-3.41S81 246 81 248.04v20.46c0 2.04-1.36 3.4-3.4 3.4"/><path fill="#D5E5B1" d="M92.6 123.95c-.7-2.04-2.73-2.72-4.1-2.04-8.18 3.4-13.64 11.59-14.32 20.45v3.41c0 2.05 1.37 3.41 3.41 3.41 2.05 0 3.41-1.36 3.41-3.4v-3.42c0-6.14 4.1-12.27 9.55-14.3 2.04-.7 2.73-2.74 2.04-4.1"/><path fill="#014463" d="M139.64 98.73c-2.73-1.37-4.1-3.41-4.1-6.14V12.82c0-4.1-2.72-6.82-6.81-6.82H87.82C83.72 6 81 8.73 81 12.82V91.9c0 2.73-1.36 5.45-4.1 6.14a47.99 47.99 0 0 0-30 44.31v143.18c0 11.6 8.87 20.46 20.46 20.46H149.2c11.58 0 20.45-8.86 20.45-20.46V142.36c0-19.09-11.6-36.81-30-43.63m-45-79.1h27.27v13.64H94.64V19.64zM156 285.55c0 4.1-2.73 6.82-6.82 6.82h-4.09c-4.1 0-8.86-2.04-11.59-4.77a29.93 29.93 0 0 0-21.14-8.86h-8.18c-8.18 0-15.68 3.4-21.14 8.86-3.4 3.4-7.5 4.77-11.58 4.77h-4.1c-4.09 0-6.81-2.73-6.81-6.82V176.45h13.63V231c0 4.09 2.73 6.82 6.82 6.82h54.55c4.09 0 6.81-2.73 6.81-6.82v-54.55H156v109.1zm-68.18-115.9h40.9v54.54h-40.9v-54.54zm68.18-6.82h-13.64c0-4.09-2.72-6.82-6.81-6.82H81c-4.1 0-6.82 2.73-6.82 6.82H60.54v-20.46c0-13.63 8.19-25.9 21.14-31.36 7.5-3.41 12.96-10.91 12.96-19.1v-45h27.27v45c0 8.19 4.77 15.69 12.95 19.1 12.96 5.46 21.14 17.73 21.14 31.36v20.46z"/><path fill="#E3B3FF" d="M213.73 185.22c-.27-.1-.6-.1-.87.01-.38.15-.68.39-.8.8-.11.43.06 1 .47 1.24.5.63 1.57.38 1.93-.25.43-.73 0-1.53-.73-1.8zM224.12 190.66l-.08-.1c-.4-.4-1.1-.29-1.38.19-.32.54.08 1.36.76 1.31h.12c.71-.05 1.09-.86.58-1.4zM216.83 193.58c-2.48 0-2.48 3.84 0 3.84s2.48-3.84 0-3.84zM222.17 183.6c-1.15 0-1.15 1.79 0 1.79s1.15-1.78 0-1.78zM227.17 186.34c-1.07 0-1.07 1.65 0 1.65s1.07-1.65 0-1.65zM232.5 203.78c-2.22 0-2.22 3.44 0 3.44s2.22-3.44 0-3.44zM231.83 194.37c-1.25 0-1.25 1.93 0 1.93s1.25-1.94 0-1.94zM226 197.46c-.9 0-.9 1.41 0 1.41s.9-1.4 0-1.4z"/></svg>