<svg xmlns="http://www.w3.org/2000/svg" width="243" height="311"><path fill="#AE89BE" d="M122 224.184c18.823 0 34.09 15.268 34.09 34.091s-15.267 34.09-34.09 34.09c-18.826 0-34.09-15.267-34.09-34.09s15.264-34.091 34.09-34.091"/><path fill="#014463" d="M122 306c-26.59 0-47.727-21.133-47.727-47.726S95.41 210.548 122 210.548c26.593 0 47.727 21.134 47.727 47.727S148.593 306 122 306m0-81.816c-19.089 0-34.09 15.002-34.09 34.091s15.001 34.09 34.09 34.09c19.089 0 34.09-15.001 34.09-34.09s-15.001-34.091-34.09-34.091"/><path fill="#634682" d="M142.454 231.002c4.088 5.453 6.818 12.957 6.818 20.454 0 19.089-15.001 34.091-34.091 34.091-7.5 0-15.001-2.73-20.454-6.818 6.136 8.183 16.363 13.636 27.272 13.636 19.089 0 34.09-15.001 34.09-34.09.001-10.907-5.452-21.134-13.635-27.273"/><path fill="#EBBEFC" d="M101.546 251.456a6.822 6.822 0 0 1 6.818 6.818 6.822 6.822 0 0 1-6.818 6.817 6.822 6.822 0 0 1-6.818-6.817 6.822 6.822 0 0 1 6.818-6.818"/><path fill="#634682" d="M94.728 251.456c13.636 0 25.229-5.453 34.091-14.315 6.817 6.818 16.365 12.271 26.593 13.637-3.409-15.002-17.045-26.594-33.411-26.594-16.363 0-29.999 11.592-33.408 26.594 2.043.678 4.091.678 6.135.678"/><path fill="#AE89BE" d="M156.09 162.821c18.823 0 34.091 15.268 34.091 34.091 0 18.822-15.268 34.09-34.091 34.09-18.822 0-34.09-15.268-34.09-34.09 0-18.823 15.268-34.091 34.09-34.091"/><path fill="#014463" d="M156.09 244.639c-26.593 0-47.726-21.134-47.726-47.727 0-26.594 21.133-47.727 47.726-47.727 26.594 0 47.727 21.133 47.727 47.727-.001 26.593-21.133 47.727-47.727 47.727m0-81.818c-19.089 0-34.09 15.001-34.09 34.091 0 19.089 15.001 34.09 34.09 34.09 19.09 0 34.091-15.001 34.091-34.09 0-19.09-15.001-34.091-34.091-34.091"/><path fill="#634682" d="M176.544 169.64c4.089 5.453 6.818 12.957 6.818 20.454 0 19.089-15.001 34.09-34.09 34.09-7.497 0-15.001-2.729-20.454-6.818 6.139 8.184 16.365 13.637 27.271 13.637 19.09 0 34.091-15.001 34.091-34.09.001-10.907-5.452-21.135-13.636-27.273"/><path fill="#634682" d="M189.495 189.414c-3.409-15.001-17.046-26.593-33.405-26.593-19.089 0-34.09 15.001-34.09 34.091 0 10.906 4.773 19.774 12.271 25.906 4.773-7.496 8.183-16.358 8.183-25.906 0-2.73 0-6.14-.686-8.862 8.183-2.044 15.687-6.818 21.14-12.271 6.819 6.818 16.36 12.271 26.587 13.635"/><path fill="#AE89BE" d="M87.91 162.821c18.826 0 34.09 15.268 34.09 34.091 0 18.822-15.264 34.09-34.09 34.09s-34.09-15.268-34.09-34.09c-.001-18.823 15.263-34.091 34.09-34.091"/><path fill="#014463" d="M87.91 244.639c-26.59 0-47.727-21.134-47.727-47.727 0-26.594 21.137-47.727 47.727-47.727s47.726 21.133 47.726 47.727c0 26.593-21.136 47.727-47.726 47.727m0-81.818c-19.089 0-34.09 15.001-34.09 34.091 0 19.089 15.001 34.09 34.09 34.09S122 216.001 122 196.912c0-19.09-15.001-34.091-34.09-34.091"/><path fill="#634682" d="M108.364 169.64c4.091 5.453 6.818 12.957 6.818 20.454 0 19.089-15.001 34.09-34.09 34.09-7.501 0-15.001-2.729-20.454-6.818C66.773 225.55 77 231.003 87.91 231.003c19.089 0 34.09-15.001 34.09-34.09 0-10.907-5.453-21.135-13.636-27.273"/><path fill="#634682" d="M60.638 190.094c13.636 0 25.228-5.453 34.09-14.315 6.818 6.818 16.363 12.271 26.59 13.636-3.409-15.001-17.045-26.593-33.408-26.593s-29.999 11.592-33.408 26.593c2.044.679 4.091.679 6.136.679"/><path fill="#EBBEFC" d="M67.456 190.094a6.822 6.822 0 0 1 6.818 6.818 6.822 6.822 0 0 1-6.818 6.817 6.822 6.822 0 0 1-6.818-6.817 6.821 6.821 0 0 1 6.818-6.818"/><path fill="#AE89BE" d="M53.819 101.458c18.826 0 34.09 15.267 34.09 34.09 0 18.827-15.264 34.091-34.09 34.091s-34.09-15.265-34.09-34.091c0-18.822 15.264-34.09 34.09-34.09"/><path fill="#014463" d="M53.819 183.275c-26.59 0-47.727-21.133-47.727-47.727 0-26.589 21.137-47.726 47.727-47.726s47.727 21.137 47.727 47.726c0 26.595-21.137 47.727-47.727 47.727m0-81.817c-19.089 0-34.09 15.001-34.09 34.09 0 19.089 15.001 34.091 34.09 34.091s34.09-15.002 34.09-34.091c.001-19.089-15-34.09-34.09-34.09"/><path fill="#634682" d="M74.273 108.276c4.092 5.453 6.818 12.954 6.818 20.454 0 19.089-15.001 34.091-34.09 34.091-7.5 0-15.001-2.729-20.455-6.818 6.136 8.184 16.363 13.637 27.272 13.637 19.089 0 34.09-15.002 34.09-34.091.002-10.91-5.451-21.137-13.635-27.273"/><path fill="#EBBEFC" d="M33.365 142.367c-4.092 0-6.818-2.727-6.818-6.818 0-15.001 12.271-27.272 27.272-27.272 4.092 0 6.818 2.727 6.818 6.818 0 4.092-2.727 6.818-6.818 6.818-7.5 0-13.636 6.136-13.636 13.636 0 4.091-2.726 6.818-6.818 6.818"/><path fill="#AE89BE" d="M190.181 101.458c18.823 0 34.09 15.267 34.09 34.09 0 18.827-15.267 34.091-34.09 34.091s-34.091-15.265-34.091-34.091c0-18.822 15.267-34.09 34.091-34.09"/><path fill="#014463" d="M190.181 183.275c-26.593 0-47.727-21.133-47.727-47.727 0-26.589 21.134-47.726 47.727-47.726s47.727 21.137 47.727 47.726c-.001 26.595-21.135 47.727-47.727 47.727m0-81.817c-19.09 0-34.091 15.001-34.091 34.09 0 19.089 15.001 34.091 34.091 34.091 19.089 0 34.09-15.002 34.09-34.091s-15.001-34.09-34.09-34.09"/><path fill="#634682" d="M210.635 108.276c4.088 5.453 6.818 12.954 6.818 20.454 0 19.089-15.001 34.091-34.091 34.091-7.497 0-15.001-2.729-20.454-6.818 6.139 8.184 16.366 13.637 27.272 13.637 19.089 0 34.09-15.002 34.09-34.091.001-10.91-5.453-21.137-13.635-27.273"/><path fill="#634682" d="M156.09 135.548c0 11.592 6.14 22.499 15.001 28.638 3.409-6.818 5.453-13.637 5.453-21.82 0-11.592-4.088-21.819-10.906-30.681-6.139 6.136-9.548 15.002-9.548 23.863"/><path fill="#EBBEFC" d="M183.362 108.276a6.822 6.822 0 0 1 6.818 6.818c0 3.766-3.057 6.818-6.818 6.818s-6.818-3.053-6.818-6.818a6.824 6.824 0 0 1 6.818-6.818"/><path fill="#AE89BE" d="M122 101.458c18.823 0 34.09 15.267 34.09 34.09 0 18.827-15.267 34.091-34.09 34.091-18.826 0-34.09-15.265-34.09-34.091 0-18.822 15.264-34.09 34.09-34.09"/><path fill="#014463" d="M122 183.275c-26.59 0-47.727-21.133-47.727-47.727 0-26.589 21.137-47.726 47.727-47.726 26.593 0 47.727 21.137 47.727 47.726 0 26.595-21.134 47.727-47.727 47.727m0-81.817c-19.089 0-34.09 15.001-34.09 34.09 0 19.089 15.001 34.091 34.09 34.091 19.089 0 34.09-15.002 34.09-34.091s-15.001-34.09-34.09-34.09"/><path fill="#634682" d="M142.454 108.276c4.088 5.453 6.818 12.954 6.818 20.454 0 19.089-15.001 34.091-34.091 34.091-7.5 0-15.001-2.729-20.454-6.818 6.136 8.184 16.363 13.637 27.272 13.637 19.089 0 34.09-15.002 34.09-34.091.001-10.91-5.452-21.137-13.635-27.273"/><path fill="#EBBEFC" d="M101.546 142.367c-4.092 0-6.818-2.727-6.818-6.818 0-15.001 12.271-27.272 27.272-27.272 4.088 0 6.818 2.727 6.818 6.818 0 4.092-2.73 6.818-6.818 6.818-7.5 0-13.636 6.136-13.636 13.636 0 4.091-2.727 6.818-6.818 6.818"/><path fill="#90C962" d="M122 60.55c0-10.91-4.092-21.137-11.592-29.316-8.18-7.501-18.407-11.592-29.316-11.592 0 10.91 4.091 21.137 11.592 29.316C100.181 57.141 111.09 60.55 122 60.55"/><path fill="#014463" d="M176.544 33.278c-16.365 0-30.681 6.136-41.587 16.362-2.051-10.227-6.818-20.454-15.001-27.954C107.682 9.415 90.636 3.961 74.273 6.688c-2.727.683-5.453 2.727-5.453 5.453-2.729 16.363 3.409 34.09 14.998 45.683 9.544 9.544 22.501 14.998 35.455 15.68-2.047 6.136-3.409 13.636-3.409 20.454 0 4.092 2.727 6.818 6.814 6.818 4.095 0 6.818-2.727 6.818-6.818 0-26.589 21.14-47.726 47.727-47.726 4.095 0 6.818-2.727 6.818-6.818.001-4.092-3.408-6.136-7.497-6.136M81.092 19.642c10.909 0 21.137 4.091 29.316 11.592C117.908 39.414 122 49.64 122 60.55c-10.91 0-21.137-4.092-29.316-11.592-8.184-7.497-11.592-18.407-11.592-29.316"/><path fill="#37960F" d="M121.317 53.732c-10.227 0-20.454-4.092-28.637-11.592-6.135-6.136-10.227-13.636-11.588-21.816h-.683c0 10.91 4.091 21.137 11.592 29.316 8.862 6.818 19.089 10.91 29.999 10.91 0-2.044 0-4.774-.683-6.818"/></svg>